<svg width="24" height="24" viewBox="0 0 24 24" fill="none" xmlns="http://www.w3.org/2000/svg">
<path d="M12.0061 0.181824C7.07124 0.181824 5.62797 0.186915 5.34742 0.210187C4.33469 0.294369 3.70451 0.453824 3.01797 0.795642C2.48887 1.05837 2.0716 1.36291 1.65978 1.78982C0.909784 2.56837 0.455238 3.52619 0.290693 4.66473C0.210693 5.21746 0.18742 5.33019 0.182693 8.15346C0.180875 9.09455 0.182693 10.3331 0.182693 11.9944C0.182693 16.9253 0.188147 18.3671 0.211784 18.6471C0.293602 19.6326 0.448147 20.2526 0.77542 20.9307C1.40087 22.2289 2.59542 23.2035 4.00269 23.5671C4.48997 23.6926 5.02815 23.7616 5.71906 23.7944C6.01178 23.8071 8.99542 23.8162 11.9809 23.8162C14.9663 23.8162 17.9518 23.8126 18.2372 23.798C19.0372 23.7604 19.5018 23.698 20.0154 23.5653C21.4318 23.1998 22.6045 22.2398 23.2427 20.9235C23.5636 20.2616 23.7263 19.618 23.8 18.684C23.816 18.4804 23.8227 15.2336 23.8227 11.9913C23.8227 8.74837 23.8154 5.50764 23.7994 5.30401C23.7249 4.35492 23.5621 3.71673 23.2309 3.04219C22.9591 2.49001 22.6572 2.07764 22.2191 1.65601C21.4371 0.909096 20.4807 0.454551 19.3411 0.290187C18.7889 0.210369 18.6789 0.186733 15.8534 0.181824H12.0061Z" fill="url(#paint0_radial_111_262)"/>
<path d="M12.0061 0.181824C7.07124 0.181824 5.62797 0.186915 5.34742 0.210187C4.33469 0.294369 3.70451 0.453824 3.01797 0.795642C2.48887 1.05837 2.0716 1.36291 1.65978 1.78982C0.909784 2.56837 0.455238 3.52619 0.290693 4.66473C0.210693 5.21746 0.18742 5.33019 0.182693 8.15346C0.180875 9.09455 0.182693 10.3331 0.182693 11.9944C0.182693 16.9253 0.188147 18.3671 0.211784 18.6471C0.293602 19.6326 0.448147 20.2526 0.77542 20.9307C1.40087 22.2289 2.59542 23.2035 4.00269 23.5671C4.48997 23.6926 5.02815 23.7616 5.71906 23.7944C6.01178 23.8071 8.99542 23.8162 11.9809 23.8162C14.9663 23.8162 17.9518 23.8126 18.2372 23.798C19.0372 23.7604 19.5018 23.698 20.0154 23.5653C21.4318 23.1998 22.6045 22.2398 23.2427 20.9235C23.5636 20.2616 23.7263 19.618 23.8 18.684C23.816 18.4804 23.8227 15.2336 23.8227 11.9913C23.8227 8.74837 23.8154 5.50764 23.7994 5.30401C23.7249 4.35492 23.5621 3.71673 23.2309 3.04219C22.9591 2.49001 22.6572 2.07764 22.2191 1.65601C21.4371 0.909096 20.4807 0.454551 19.3411 0.290187C18.7889 0.210369 18.6789 0.186733 15.8534 0.181824H12.0061Z" fill="url(#paint1_radial_111_262)"/>
<path d="M12.0007 3.27271C9.63052 3.27271 9.33307 3.28307 8.40216 3.32543C7.47307 3.36798 6.83889 3.51507 6.28398 3.73089C5.70998 3.9538 5.22307 4.25198 4.73798 4.73725C4.25252 5.22234 3.95434 5.70925 3.7307 6.28307C3.51434 6.83816 3.36707 7.47252 3.32525 8.40125C3.28361 9.33216 3.27271 9.6298 3.27271 12C3.27271 14.3702 3.28325 14.6667 3.32543 15.5976C3.36816 16.5267 3.51525 17.1609 3.73089 17.7158C3.95398 18.2898 4.25216 18.7767 4.73743 19.2618C5.22234 19.7473 5.70925 20.0462 6.28289 20.2691C6.83816 20.4849 7.47252 20.632 8.40143 20.6745C9.33234 20.7169 9.62961 20.7273 11.9996 20.7273C14.37 20.7273 14.6665 20.7169 15.5974 20.6745C16.5265 20.632 17.1614 20.4849 17.7167 20.2691C18.2905 20.0462 18.7767 19.7473 19.2616 19.2618C19.7471 18.7767 20.0452 18.2898 20.2689 17.716C20.4834 17.1609 20.6307 16.5265 20.6743 15.5978C20.7162 14.6669 20.7271 14.3702 20.7271 12C20.7271 9.6298 20.7162 9.33234 20.6743 8.40143C20.6307 7.47234 20.4834 6.83816 20.2689 6.28325C20.0452 5.70925 19.7471 5.22234 19.2616 4.73725C18.7762 4.2518 18.2907 3.95361 17.7162 3.73089C17.1598 3.51507 16.5252 3.36798 15.5962 3.32543C14.6652 3.28307 14.3689 3.27271 11.998 3.27271H12.0007ZM11.2178 4.84543C11.4502 4.84507 11.7094 4.84543 12.0007 4.84543C14.3309 4.84543 14.6071 4.8538 15.5273 4.89561C16.3782 4.93452 16.84 5.07671 17.1476 5.19616C17.5549 5.35434 17.8453 5.54343 18.1505 5.84889C18.456 6.15434 18.6451 6.44525 18.8036 6.85252C18.9231 7.1598 19.0654 7.62161 19.1042 8.47252C19.146 9.39252 19.1551 9.66889 19.1551 11.998C19.1551 14.3271 19.146 14.6034 19.1042 15.5234C19.0652 16.3743 18.9231 16.8362 18.8036 17.1434C18.6454 17.5507 18.456 17.8407 18.1505 18.146C17.8451 18.4514 17.5551 18.6405 17.1476 18.7987C16.8403 18.9187 16.3782 19.0605 15.5273 19.0994C14.6073 19.1413 14.3309 19.1503 12.0007 19.1503C9.67034 19.1503 9.39416 19.1413 8.47416 19.0994C7.62325 19.0602 7.16143 18.918 6.85361 18.7985C6.44634 18.6403 6.15543 18.4513 5.84998 18.1458C5.54452 17.8403 5.35543 17.5502 5.19689 17.1427C5.07743 16.8354 4.93507 16.3736 4.89634 15.5227C4.85452 14.6027 4.84616 14.3263 4.84616 11.9958C4.84616 9.66525 4.85452 9.39034 4.89634 8.47034C4.93525 7.61943 5.07743 7.15761 5.19689 6.84998C5.35507 6.4427 5.54452 6.1518 5.84998 5.84634C6.15543 5.54089 6.44634 5.3518 6.85361 5.19325C7.16125 5.07325 7.62325 4.93143 8.47416 4.89234C9.27925 4.85598 9.59125 4.84507 11.2178 4.84325V4.84543ZM16.6592 6.29452C16.0811 6.29452 15.612 6.76307 15.612 7.34143C15.612 7.91961 16.0811 8.38871 16.6592 8.38871C17.2374 8.38871 17.7065 7.91961 17.7065 7.34143C17.7065 6.76325 17.2374 6.29416 16.6592 6.29416V6.29452ZM12.0007 7.51816C9.52561 7.51816 7.51889 9.52489 7.51889 12C7.51889 14.4751 9.52561 16.4809 12.0007 16.4809C14.4758 16.4809 16.4818 14.4751 16.4818 12C16.4818 9.52489 14.4758 7.51816 12.0007 7.51816ZM12.0007 9.09089C13.6072 9.09089 14.9098 10.3933 14.9098 12C14.9098 13.6065 13.6072 14.9091 12.0007 14.9091C10.394 14.9091 9.09161 13.6065 9.09161 12C9.09161 10.3933 10.394 9.09089 12.0007 9.09089Z" fill="white"/>
<defs>
<radialGradient id="paint0_radial_111_262" cx="0" cy="0" r="1" gradientUnits="userSpaceOnUse" gradientTransform="translate(6.4615 25.6365) rotate(-90) scale(23.4234 21.7915)">
<stop stop-color="#FFDD55"/>
<stop offset="0.1" stop-color="#FFDD55"/>
<stop offset="0.5" stop-color="#FF543E"/>
<stop offset="1" stop-color="#C837AB"/>
</radialGradient>
<radialGradient id="paint1_radial_111_262" cx="0" cy="0" r="1" gradientUnits="userSpaceOnUse" gradientTransform="translate(-3.77808 1.8844) rotate(78.6776) scale(10.4705 43.1706)">
<stop stop-color="#3771C8"/>
<stop offset="0.128" stop-color="#3771C8"/>
<stop offset="1" stop-color="#6600FF" stop-opacity="0"/>
</radialGradient>
</defs>
</svg>
