<svg width="131" height="32" viewBox="0 0 131 32" fill="none" xmlns="http://www.w3.org/2000/svg">
<g id="Logo" clip-path="url(#clip0_103_50)">
<path id="Vector" d="M0.68191 22.1121L7.10614 21.3868C7.47698 21.3461 7.71839 21.524 7.72554 21.8991C7.83433 27.4758 8.78486 28.9415 11.1179 28.9415C12.8459 28.9415 13.8742 27.8787 13.8742 25.8783C13.8742 23.5045 12.6712 21.9781 9.4122 19.7798L6.15323 17.6038C2.89347 15.4063 0.312655 13.1211 0.334096 8.6152C0.356331 3.12069 4.07428 0 10.5049 0C16.9355 0 20.3739 2.95711 20.7519 8.64951C20.786 9.16258 20.6264 9.42669 20.1174 9.48095L14.0974 10.1552C13.7257 10.1943 13.4859 9.97806 13.4803 9.60223C13.4097 4.35667 12.5076 3.0369 10.2643 3.0369C8.66733 3.0369 7.61754 4.12208 7.61754 6.0778C7.61754 8.18751 8.42672 9.58308 11.9922 11.8907L15.3608 14.0666C18.6856 16.2202 21.3975 18.3084 21.3975 22.9459C21.3975 28.4405 17.4604 32.0008 10.5922 32.0008C3.72409 32.0008 0.427799 29.0517 0.00375217 23.0983C-0.0327762 22.5845 0.1721 22.168 0.68191 22.1113V22.1121Z" fill="#202323"/>
<path id="Vector_2" d="M22.6937 30.7457V1.25362C22.6937 0.813166 22.8906 0.61528 23.3289 0.61528H39.3371C39.7755 0.61528 39.9724 0.813166 39.9724 1.25362V3.78624C39.9724 4.22669 39.7755 4.42458 39.3371 4.42458H30.8927C30.7609 4.42458 30.6545 4.5315 30.6545 4.66395V13.6039C30.6545 13.7364 30.7609 13.8433 30.8927 13.8433H38.5494C38.9877 13.8433 39.1846 14.0412 39.1846 14.4816V16.6624C39.1846 17.1028 38.9877 17.3007 38.5494 17.3007H30.8927C30.7609 17.3007 30.6545 17.4076 30.6545 17.5401V27.337C30.6545 27.4695 30.7609 27.5764 30.8927 27.5764H39.7302C40.1685 27.5764 40.3655 27.7743 40.3655 28.2147V30.7465C40.3655 31.187 40.1685 31.3849 39.7302 31.3849H23.3281C22.8898 31.3849 22.6929 31.187 22.6929 30.7465L22.6937 30.7457Z" fill="#202323"/>
<path id="Vector_3" d="M62.9274 7.76788H62.9345C62.8607 3.14869 59.6922 0.61528 53.619 0.61528H42.2182C41.8672 0.61528 41.7417 0.741352 41.7417 1.09404V30.7457C41.7417 31.1862 41.9386 31.3841 42.377 31.3841H49.068C49.5064 31.3841 49.7033 31.1862 49.7033 30.7457V17.8249C49.7033 17.6925 49.8097 17.5856 49.9415 17.5856H51.4098C53.3561 17.5856 54.0089 18.784 54.1637 22.267C54.2471 24.1541 54.1979 28.8004 54.1741 30.7362C54.1685 31.1806 54.367 31.3841 54.8093 31.3841H62.2873C62.7257 31.3841 62.9226 31.1862 62.9226 30.7457V23.7663C62.8075 19.092 60.5538 16.4844 55.9266 16.3416C55.6995 16.3344 55.5185 16.1493 55.5185 15.9219C55.5185 15.6937 55.6995 15.5094 55.9266 15.5022C60.6634 15.3554 62.9274 12.6272 62.9274 7.76868V7.76788ZM55.0619 10.1728C55.0619 13.0517 54.1653 13.9965 52.088 13.9965H49.9415C49.8097 13.9965 49.7033 13.8896 49.7033 13.7571V3.77826C49.7033 3.6458 49.8097 3.53888 49.9415 3.53888H52.088C54.1653 3.53888 55.0619 4.54985 55.0619 7.36254V10.1728Z" fill="#202323"/>
<path id="Vector_4" d="M74.9674 0.615132H65.1039C64.6656 0.615132 64.4686 0.813018 64.4686 1.25347V8.03265C64.5607 12.7244 66.8144 15.3568 71.4424 15.5012C71.6695 15.5084 71.8505 15.6935 71.8505 15.9209C71.8505 16.1491 71.6695 16.3343 71.4424 16.3406C66.8144 16.4851 64.5607 19.1166 64.4686 23.8316V30.7448C64.4686 31.1852 64.6656 31.3831 65.1039 31.3831H74.9674C82.5573 31.3831 86.1665 27.2299 86.1665 18.4607V13.5599C86.1665 4.76833 82.5573 0.614334 74.9674 0.614334V0.615132ZM78.139 22.3506C78.139 26.2844 77.1106 27.8451 74.5298 27.8451H72.6685C72.5366 27.8451 72.4302 27.7382 72.4302 27.6058V4.39411C72.4302 4.26165 72.5366 4.15473 72.6685 4.15473H74.5298C77.1106 4.15473 78.139 5.73701 78.139 9.75936V22.3506Z" fill="#202323"/>
<path id="Vector_5" d="M112.344 30.7457V1.25362C112.344 0.813166 112.541 0.61528 112.979 0.61528H119.67C120.109 0.61528 120.305 0.813166 120.305 1.25362V27.3362C120.305 27.4687 120.412 27.5756 120.544 27.5756H130.007C130.445 27.5756 130.642 27.7735 130.642 28.2139V30.7457C130.642 31.1862 130.445 31.3841 130.007 31.3841H112.979C112.541 31.3841 112.344 31.1862 112.344 30.7457Z" fill="#202323"/>
<path id="Vector_6" d="M103.07 0.61528H93.2117C92.7718 0.61528 92.3883 0.918492 92.285 1.34857L85.1945 30.5965C85.0985 30.9979 85.401 31.3841 85.8124 31.3841H92.3208C92.7726 31.3841 93.1625 31.0657 93.2538 30.6213L94.2774 25.1124C94.3044 24.96 94.4362 24.8483 94.5903 24.8483L101.687 24.8818C101.841 24.8818 101.973 24.9927 102 25.1459L103.028 30.6213C103.119 31.0657 103.509 31.3841 103.961 31.3841H110.469C110.88 31.3841 111.183 30.9979 111.087 30.5965L103.996 1.34857C103.893 0.918492 103.51 0.61528 103.07 0.61528ZM95.0167 21.0087L97.8016 5.60471C97.835 5.44353 97.9763 5.32783 98.1399 5.32783C98.3035 5.32783 98.4448 5.44353 98.4782 5.60471L101.265 21.0031C101.296 21.1515 101.182 21.2911 101.031 21.2911L95.2494 21.2967C95.0985 21.2967 94.9858 21.1571 95.0159 21.0087H95.0167Z" fill="#202323"/>
</g>
<defs>
<clipPath id="clip0_103_50">
<rect width="131" height="32" fill="white"/>
</clipPath>
</defs>
</svg>
