<svg width="131" height="32" viewBox="0 0 131 32" fill="none" xmlns="http://www.w3.org/2000/svg">
<g clip-path="url(#clip0_387_82)">
<path d="M0.681788 22.1121L7.10602 21.3868C7.47686 21.3461 7.71827 21.524 7.72542 21.8991C7.83421 27.4758 8.78474 28.9415 11.1178 28.9415C12.8458 28.9415 13.8741 27.8787 13.8741 25.8783C13.8741 23.5045 12.6711 21.9781 9.41208 19.7798L6.15311 17.6038C2.89335 15.4063 0.312533 13.1211 0.333974 8.6152C0.356209 3.12069 4.07416 0 10.5048 0C16.9354 0 20.3738 2.95711 20.7518 8.64951C20.7859 9.16258 20.6263 9.42669 20.1173 9.48095L14.0973 10.1552C13.7256 10.1943 13.4858 9.97806 13.4802 9.60223C13.4096 4.35667 12.5075 3.0369 10.2642 3.0369C8.66721 3.0369 7.61742 4.12208 7.61742 6.0778C7.61742 8.18751 8.4266 9.58308 11.9921 11.8907L15.3607 14.0666C18.6855 16.2202 21.3974 18.3084 21.3974 22.9459C21.3974 28.4405 17.4603 32.0008 10.5921 32.0008C3.72397 32.0008 0.427677 29.0517 0.0036301 23.0983C-0.0328983 22.5845 0.171978 22.1688 0.681788 22.1121Z" fill="white"/>
<path d="M22.6936 30.7457V1.25362C22.6936 0.813166 22.8905 0.61528 23.3288 0.61528H39.337C39.7754 0.61528 39.9723 0.813166 39.9723 1.25362V3.78624C39.9723 4.22669 39.7754 4.42458 39.337 4.42458H30.8926C30.7608 4.42458 30.6544 4.5315 30.6544 4.66395V13.6039C30.6544 13.7364 30.7608 13.8433 30.8926 13.8433H38.5493C38.9876 13.8433 39.1845 14.0412 39.1845 14.4816V16.6624C39.1845 17.1028 38.9876 17.3007 38.5493 17.3007H30.8926C30.7608 17.3007 30.6544 17.4076 30.6544 17.5401V27.337C30.6544 27.4695 30.7608 27.5764 30.8926 27.5764H39.7301C40.1684 27.5764 40.3654 27.7743 40.3654 28.2147V30.7465C40.3654 31.187 40.1684 31.3849 39.7301 31.3849H23.328C22.8897 31.3849 22.6928 31.187 22.6928 30.7465L22.6936 30.7457Z" fill="white"/>
<path d="M62.9273 7.76788H62.9344C62.8606 3.14869 59.6921 0.61528 53.6189 0.61528H42.2181C41.8671 0.61528 41.7416 0.741352 41.7416 1.09404V30.7457C41.7416 31.1862 41.9385 31.3841 42.3769 31.3841H49.0679C49.5063 31.3841 49.7032 31.1862 49.7032 30.7457V17.8249C49.7032 17.6925 49.8096 17.5856 49.9414 17.5856H51.4097C53.356 17.5856 54.0088 18.784 54.1636 22.267C54.247 24.1541 54.1978 28.8004 54.174 30.7362C54.1684 31.1806 54.3669 31.3841 54.8092 31.3841H62.2872C62.7256 31.3841 62.9225 31.1862 62.9225 30.7457V23.7663C62.8074 19.092 60.5537 16.4844 55.9265 16.3416C55.6994 16.3344 55.5184 16.1493 55.5184 15.9219C55.5184 15.6937 55.6994 15.5094 55.9265 15.5022C60.6633 15.3554 62.9273 12.6264 62.9273 7.76788ZM55.0618 10.1728C55.0618 13.0517 54.1652 13.9965 52.0879 13.9965H49.9414C49.8096 13.9965 49.7032 13.8896 49.7032 13.7571V3.77826C49.7032 3.6458 49.8096 3.53888 49.9414 3.53888H52.0879C54.1652 3.53888 55.0618 4.54985 55.0618 7.36254V10.1728Z" fill="white"/>
<path d="M74.9673 0.615132H65.1038C64.6655 0.615132 64.4685 0.813018 64.4685 1.25347V8.03265C64.5606 12.7244 66.8143 15.3568 71.4423 15.5012C71.6694 15.5084 71.8504 15.6935 71.8504 15.9209C71.8504 16.1491 71.6694 16.3343 71.4423 16.3406C66.8143 16.4851 64.5606 19.1166 64.4685 23.8316V30.7448C64.4685 31.1852 64.6655 31.3831 65.1038 31.3831H74.9673C82.5572 31.3831 86.1664 27.2299 86.1664 18.4607V13.5599C86.1664 4.76833 82.5572 0.615132 74.9673 0.615132ZM78.1389 22.3506C78.1389 26.2844 77.1105 27.8451 74.5297 27.8451H72.6684C72.5365 27.8451 72.4301 27.7382 72.4301 27.6058V4.39411C72.4301 4.26165 72.5365 4.15473 72.6684 4.15473H74.5297C77.1105 4.15473 78.1389 5.73701 78.1389 9.75936V22.3506Z" fill="white"/>
<path d="M112.344 30.7457V1.25362C112.344 0.813166 112.541 0.61528 112.979 0.61528H119.67C120.109 0.61528 120.305 0.813166 120.305 1.25362V27.3362C120.305 27.4687 120.412 27.5756 120.544 27.5756H130.007C130.445 27.5756 130.642 27.7735 130.642 28.2139V30.7457C130.642 31.1862 130.445 31.3841 130.007 31.3841H112.979C112.541 31.3841 112.344 31.1862 112.344 30.7457Z" fill="white"/>
<path d="M103.07 0.61528H93.2116C92.7717 0.61528 92.3882 0.918492 92.2849 1.34857L85.1944 30.5965C85.0984 30.9979 85.4009 31.3841 85.8123 31.3841H92.3207C92.7725 31.3841 93.1624 31.0657 93.2537 30.6213L94.2773 25.1124C94.3043 24.96 94.4361 24.8483 94.5902 24.8483L101.687 24.8818C101.841 24.8818 101.973 24.9927 102 25.1459L103.028 30.6213C103.119 31.0657 103.509 31.3841 103.961 31.3841H110.469C110.88 31.3841 111.183 30.9979 111.087 30.5965L103.996 1.34857C103.893 0.918492 103.51 0.61528 103.07 0.61528ZM95.0166 21.0087L97.8015 5.60471C97.8349 5.44353 97.9762 5.32783 98.1398 5.32783C98.3034 5.32783 98.4447 5.44353 98.4781 5.60471L101.265 21.0031C101.296 21.1515 101.182 21.2911 101.031 21.2911L95.2493 21.2967C95.0984 21.2967 94.9865 21.1571 95.0166 21.0087Z" fill="white"/>
</g>
<defs>
<clipPath id="clip0_387_82">
<rect width="131" height="32" fill="white"/>
</clipPath>
</defs>
</svg>
