<svg width="24" height="24" viewBox="0 0 24 24" fill="none" xmlns="http://www.w3.org/2000/svg">
<g clip-path="url(#clip0_111_235)">
<path d="M23.4689 11.4589C23.3605 8.49268 22.1106 5.68302 19.98 3.61654C17.8493 1.55006 15.0027 0.38655 12.0346 0.368961H11.9786C9.97977 0.367476 8.0151 0.886411 6.27771 1.8747C4.54036 2.86299 3.09024 4.28658 2.07005 6.00539C1.04985 7.7242 0.494743 9.67905 0.459327 11.6775C0.423912 13.676 0.909416 15.6492 1.86807 17.4031L0.850128 23.4944C0.848472 23.5068 0.849494 23.5195 0.853132 23.5316C0.856763 23.5437 0.862934 23.5548 0.871217 23.5644C0.879501 23.5739 0.889713 23.5815 0.901171 23.5867C0.912629 23.592 0.925078 23.5947 0.937682 23.5948H0.955194L6.97994 22.2547C8.5366 23.002 10.2413 23.3898 11.9681 23.3893C12.0778 23.3893 12.1875 23.3893 12.2972 23.3893C13.8162 23.346 15.3116 23.0022 16.6969 22.3779C18.0823 21.7536 19.3303 20.8611 20.369 19.7519C21.4076 18.6427 22.2164 17.3388 22.7484 15.9154C23.2804 14.4921 23.5253 12.9774 23.4689 11.4589ZM12.24 21.3873C12.149 21.3873 12.0579 21.3873 11.9681 21.3873C10.442 21.3892 8.93771 21.024 7.5823 20.3227L7.27412 20.1616L3.18836 21.127L3.94247 16.9933L3.76737 16.6968C2.93104 15.271 2.48057 13.6518 2.46033 11.9988C2.44008 10.3459 2.85075 8.71619 3.6519 7.27026C4.45305 5.82431 5.61702 4.61199 7.0292 3.75271C8.44137 2.89341 10.053 2.41681 11.7055 2.36982C11.7973 2.36982 11.8895 2.36982 11.9821 2.36982C14.4769 2.37721 16.8689 3.36437 18.6428 5.11862C20.4168 6.87285 21.4306 9.25379 21.4658 11.7483C21.5009 14.2429 20.5548 16.6514 18.8311 18.4551C17.1074 20.2587 14.7442 21.313 12.2506 21.3908L12.24 21.3873Z" fill="#25D366"/>
<path d="M7.96607 6.32253C7.82385 6.32531 7.68361 6.35659 7.55368 6.41454C7.42375 6.47249 7.30676 6.55593 7.20965 6.6599C6.93532 6.94123 6.16836 7.61831 6.124 9.04016C6.07965 10.462 7.07307 11.8687 7.21198 12.0659C7.3509 12.2632 9.11126 15.3346 12.011 16.5801C13.7154 17.3144 14.4625 17.4405 14.9469 17.4405C15.1466 17.4405 15.2971 17.4195 15.4547 17.4101C15.9859 17.3774 17.1848 16.7634 17.4462 16.0957C17.7077 15.428 17.7252 14.8443 17.6563 14.7275C17.5875 14.6108 17.3984 14.5267 17.1136 14.3773C16.8287 14.2279 15.4314 13.4808 15.1687 13.3757C15.0713 13.3304 14.9665 13.3031 14.8593 13.2952C14.7896 13.2988 14.7218 13.3194 14.6618 13.3553C14.6018 13.391 14.5514 13.441 14.515 13.5006C14.2816 13.7913 13.7457 14.4228 13.5659 14.605C13.5266 14.6502 13.4782 14.6867 13.424 14.7121C13.3697 14.7374 13.3106 14.751 13.2507 14.7521C13.1403 14.7472 13.0323 14.7181 12.9344 14.6668C12.088 14.3074 11.3162 13.7926 10.6592 13.1493C10.0452 12.5442 9.52437 11.8514 9.11358 11.0936C8.95487 10.7994 9.11358 10.6476 9.25835 10.5099C9.40313 10.3721 9.55835 10.1819 9.70777 10.0172C9.8304 9.8766 9.9326 9.71944 10.0113 9.55027C10.0521 9.47177 10.0726 9.38436 10.0712 9.29595C10.0698 9.20746 10.0464 9.12083 10.0031 9.04364C9.9343 8.89655 9.41946 7.4502 9.17784 6.87002C8.98173 6.3739 8.74824 6.35755 8.54393 6.34238C8.37585 6.33071 8.18323 6.32487 7.99061 6.31903H7.96607" fill="#25D366"/>
</g>
<defs>
<clipPath id="clip0_111_235">
<rect width="24" height="24" fill="white"/>
</clipPath>
</defs>
</svg>
